<?xml version="1.0" encoding="iso-8859-1"?>
<!-- Uploaded to: SVG Repo, www.svgrepo.com, Generator: SVG Repo Mixer Tools -->
<svg fill="#000000" height="800px" width="800px" version="1.1" id="Layer_1" xmlns="http://www.w3.org/2000/svg" xmlns:xlink="http://www.w3.org/1999/xlink" 
	 viewBox="0 0 502 502" xml:space="preserve">
<g>
	<g>
		<g>
			<path d="M276.34,441.076c104.808,0,190.076-85.268,190.076-190.076S381.149,60.924,276.34,60.924
				C171.532,60.924,86.264,146.192,86.264,251S171.532,441.076,276.34,441.076z M276.34,80.924
				c93.78,0,170.076,76.296,170.076,170.076S370.12,421.076,276.34,421.076S106.264,344.78,106.264,251S182.56,80.924,276.34,80.924
				z"/>
			<path d="M203.799,251c0,39.999,32.542,72.541,72.541,72.541c40,0,72.542-32.542,72.542-72.541
				c0-39.999-32.542-72.541-72.542-72.541C236.341,178.459,203.799,211.001,203.799,251z M328.882,251
				c0,28.972-23.57,52.541-52.542,52.541c-28.971,0-52.541-23.569-52.541-52.541s23.57-52.541,52.541-52.541
				C305.312,198.459,328.882,222.028,328.882,251z"/>
			<path d="M245.853,251c0,16.81,13.676,30.487,30.487,30.487c16.811,0,30.488-13.677,30.488-30.487s-13.676-30.487-30.488-30.487
				C259.53,220.513,245.853,234.19,245.853,251z M286.828,251c0,5.782-4.705,10.487-10.488,10.487
				c-5.782,0-10.487-4.705-10.487-10.487s4.705-10.487,10.487-10.487C282.123,240.513,286.828,245.218,286.828,251z"/>
			<path d="M492,25.34H10c-5.523,0-10,4.478-10,10v431.32c0,5.522,4.477,10,10,10h482c5.522,0,10-4.478,10-10V35.34
				C502,29.818,497.522,25.34,492,25.34z M50.68,456.66H20V45.34h30.68V456.66z M482,456.66H70.68V45.34H482V456.66z"/>
			<path d="M276.34,122.977c11.9,0,23.68,1.63,35.013,4.844c0.912,0.259,1.83,0.383,2.733,0.383c4.359,0,8.367-2.873,9.616-7.274
				c1.507-5.314-1.579-10.842-6.892-12.349c-13.109-3.719-26.725-5.604-40.47-5.604c-5.522,0-10,4.478-10,10
				C266.34,118.499,270.818,122.977,276.34,122.977z"/>
			<path d="M234.476,129.976c5.22-1.805,7.987-7.499,6.182-12.719c-1.805-5.22-7.498-7.989-12.719-6.183
				c-59.587,20.61-99.621,76.842-99.621,139.926c0,5.522,4.477,10,10,10s10-4.478,10-10
				C148.318,196.436,182.942,147.8,234.476,129.976z"/>
		</g>
	</g>
</g>
</svg>