<?xml version="1.0" encoding="iso-8859-1"?>
<!-- Uploaded to: SVG Repo, www.svgrepo.com, Generator: SVG Repo Mixer Tools -->
<svg fill="#000000" height="800px" width="800px" version="1.1" id="Layer_1" xmlns="http://www.w3.org/2000/svg" xmlns:xlink="http://www.w3.org/1999/xlink" 
	 viewBox="0 0 502 502" xml:space="preserve">
<g>
	<g>
		<g>
			<path d="M420.5,0H148c-2.652,0-5.196,1.054-7.071,2.929l-66.5,66.5C72.554,71.305,71.5,73.848,71.5,76.5V492
				c0,5.522,4.477,10,10,10h339c5.523,0,10-4.478,10-10V10C430.5,4.478,426.023,0,420.5,0z M410.5,482h-319V80.643L152.142,20H410.5
				V482z"/>
			<path d="M132,121c0,5.522,4.477,10,10,10h150c5.523,0,10-4.478,10-10c0-5.522-4.477-10-10-10H142
				C136.477,111,132,115.478,132,121z"/>
			<path d="M360,181H142c-5.523,0-10,4.478-10,10c0,5.522,4.477,10,10,10h218c5.523,0,10-4.478,10-10
				C370,185.478,365.523,181,360,181z"/>
			<path d="M360,251H142c-5.523,0-10,4.478-10,10c0,5.522,4.477,10,10,10h218c5.523,0,10-4.478,10-10
				C370,255.478,365.523,251,360,251z"/>
			<path d="M360,321H142c-5.523,0-10,4.478-10,10c0,5.522,4.477,10,10,10h218c5.523,0,10-4.478,10-10
				C370,325.478,365.523,321,360,321z"/>
			<path d="M330,131h30c5.523,0,10-4.478,10-10c0-5.522-4.477-10-10-10h-30c-5.523,0-10,4.478-10,10
				C320,126.522,324.477,131,330,131z"/>
		</g>
	</g>
</g>
</svg>