<?xml version="1.0" encoding="iso-8859-1"?>
<!-- Uploaded to: SVG Repo, www.svgrepo.com, Generator: SVG Repo Mixer Tools -->
<svg fill="#000000" height="800px" width="800px" version="1.1" id="Layer_1" xmlns="http://www.w3.org/2000/svg" xmlns:xlink="http://www.w3.org/1999/xlink" 
	 viewBox="0 0 501.983 501.983" xml:space="preserve">
<g>
	<g>
		<g>
			<path d="M491.553,88.775l-58.139-58.139c-13.908-13.907-36.536-13.905-50.444,0L369.905,43.7l-8.243-8.243
				c-3.905-3.904-10.238-3.904-14.142,0L95.68,287.297l0.006,0.006c-1.171,1.171-2.059,2.628-2.537,4.273L58.992,409.045
				L2.973,464.377c-2.881,2.846-3.761,7.147-2.23,10.896c1.531,3.748,5.172,6.203,9.222,6.218l80.4,0.285c0.012,0,0.024,0,0.036,0
				c2.652,0,5.195-1.054,7.071-2.929l15.641-15.641l117.5-34.167c1.644-0.479,3.101-1.366,4.272-2.538l0.006,0.006l251.841-251.84
				c1.875-1.876,2.929-4.419,2.929-7.071c0-2.652-1.054-5.195-2.929-7.071l-8.243-8.243l13.064-13.064
				C505.46,125.312,505.46,102.682,491.553,88.775z M86.273,461.762l-52.006-0.185l33.557-33.145l25.889,25.889L86.273,461.762z
				 M110.744,443.068l-31.622-31.623l28.512-98.052l101.162,101.163L110.744,443.068z M227.82,405.295L116.894,294.369
				L354.591,56.671l55.464,55.463l47.22,47.22c0.002,0.001,0.003,0.003,0.005,0.004l8.239,8.239L227.82,405.295z M477.41,125.077
				l-13.064,13.064l-80.298-80.298l13.065-13.064c2.959-2.96,6.894-4.59,11.08-4.59c4.185,0,8.12,1.63,11.079,4.59l58.139,58.139
				C483.52,109.027,483.52,118.967,477.41,125.077z"/>
			<path d="M275.95,154.185L143.223,286.912c-3.905,3.905-3.905,10.237,0,14.143c1.953,1.952,4.512,2.929,7.071,2.929
				s5.119-0.977,7.071-2.929l132.727-132.727c3.905-3.905,3.905-10.237,0-14.143C286.187,150.281,279.855,150.281,275.95,154.185z"
				/>
			<path d="M312.112,118.395l-9.516,9.517c-3.905,3.905-3.905,10.237,0,14.143c1.953,1.952,4.512,2.929,7.071,2.929
				s5.119-0.977,7.071-2.929l9.516-9.517c3.905-3.905,3.905-10.237,0-14.143C322.348,114.491,316.017,114.491,312.112,118.395z"/>
		</g>
	</g>
</g>
</svg>